<svg xmlns="http://www.w3.org/2000/svg" viewBox="0 0 100 120">
 <defs>
  <linearGradient id="d" x1="0" y1="0" x2="0" y2="1"><stop offset="0" stop-color="#3B82F6"/><stop offset="1" stop-color="#1641C4"/></linearGradient>
  <radialGradient id="b" cx="0.34" cy="0.26" r="0.8"><stop offset="0" stop-color="#ffffff" stop-opacity="0.55"/><stop offset="1" stop-color="#ffffff" stop-opacity="0"/></radialGradient>
 </defs>
 <path d="M50 3 C50 3 88 50 88 80 A38 38 0 1 1 12 80 C12 50 50 3 50 3 Z" fill="url(#d)"/>
 <path d="M50 3 C50 3 88 50 88 80 A38 38 0 1 1 12 80 C12 50 50 3 50 3 Z" fill="url(#b)"/>
 <path d="M28 103 V63 q0-3.4 3.2-1.1 l16.9 13.8 a3 3 0 0 0 3.8 0 l16.9-13.8 q3.2-2.3 3.2 1.1 V103 h-11 V79 l-8.8 6.9 a3 3 0 0 1-3.8 0 L39 79 V103 Z" fill="#ffffff"/>
 <circle cx="69" cy="39" r="3.2" fill="#ffffff" opacity="0.92"/>
</svg>
